<?xml version="1.0" encoding="utf-8"?>
<!-- Generator: Adobe Illustrator 21.1.0, SVG Export Plug-In . SVG Version: 6.00 Build 0)  -->
<svg version="1.1" id="Calque_1" xmlns="http://www.w3.org/2000/svg" xmlns:xlink="http://www.w3.org/1999/xlink" x="0px" y="0px"
	 viewBox="0 0 207.8 51.6" style="enable-background:new 0 0 207.8 51.6;" xml:space="preserve">
<style type="text/css">
	.st0{fill:#CAC8C8;}
</style>
<title>logo_header</title>
<g>
	<g>
		<g>
			<g>
				<path class="st0" d="M9.7,9.3h9.1c4.7,0,7.4,0.7,9,1.9c2.5,1.8,3.8,4.8,3.8,8.2c0,2.2-0.6,4.1-1.6,5.6c-1.3,1.9-3,2.8-5,3.3
					l6.7,11.1h-6.3l-8.1-14c0.4,0,0.8,0,1.2,0c2,0,4.2-0.1,5.4-1.1c1.2-1,1.9-2.5,1.9-4.4s-0.9-3.5-2.2-4.4
					c-1.1-0.7-2.6-0.9-4.2-0.9h-3.5v24.8H9.7V9.3z"/>
				<path class="st0" d="M55.8,39.3h-5c0-1,0-1.9,0-3c-0.9,1.8-3,3.7-7,3.7c-7.3,0-8.7-5.6-8.7-9.5V17h5.3v12.1
					c0,3.3,1.1,5.9,4.9,5.9c3.8,0,5.1-2.5,5.1-5.7V17h5.3V39.3z"/>
				<path class="st0" d="M66.9,38.5L58.5,17h5.7l5.4,14.8L75,17h5.7L67.4,51.2h-5.9L66.9,38.5z"/>
				<path class="st0" d="M83.7,17.5h2.8c0,1.2,0,2.5,0,3.9c1.2-2.9,4.2-4.6,8.1-4.5c6.8,0.1,9.2,4.7,9.2,10.1v12.4h-3V27.5
					c0-4.7-2.1-7.9-7-7.9c-4.5,0.1-7.1,2.8-7.1,7.3v12.4h-3V17.5z"/>
				<path class="st0" d="M111,29.3c0.1,5.5,4.8,8.1,8.5,8.1c3.4,0,6.1-1.7,7.5-4.5h3.1c-1,2.4-2.6,4.1-4.4,5.3
					c-1.8,1.2-4,1.8-6.2,1.8c-7.6,0-11.5-6.1-11.5-11.5c0-6.4,5-11.6,11.5-11.6c3.1,0,5.9,1.1,8,3.1c2.5,2.4,3.7,5.8,3.4,9.3H111z
					 M127.9,26.9c-0.2-3.8-3.9-7.5-8.4-7.4c-4.7,0-8.2,3.4-8.5,7.4H127.9z"/>
				<path class="st0" d="M145,23c0-2.3-1.5-3.6-3.7-3.6c-2.4,0-3.9,1.6-3.8,3.5c0.1,2.1,1.7,3,4.3,3.7c3.2,0.9,6.7,1.8,6.8,6.4
					c0.1,4-3.1,6.9-7.3,6.9c-3.5,0-7.4-2.2-7.5-6.8h3c0.1,3,2.3,4.3,4.5,4.3c2.5,0,4.3-1.8,4.2-4.1c-0.1-2.5-1.7-3.5-5.5-4.6
					c-3.1-0.9-5.6-2.2-5.7-5.7c0-3.9,3.1-6.3,6.8-6.3c3.1,0,6.5,1.7,6.7,6.1H145z"/>
				<path class="st0" d="M163.3,23c0-2.3-1.5-3.6-3.7-3.6c-2.4,0-3.9,1.6-3.8,3.5c0.1,2.1,1.7,3,4.3,3.7c3.2,0.9,6.7,1.8,6.8,6.4
					c0.1,4-3.1,6.9-7.3,6.9c-3.5,0-7.4-2.2-7.5-6.8h3c0.1,3,2.3,4.3,4.5,4.3c2.5,0,4.3-1.8,4.2-4.1c-0.1-2.5-1.7-3.5-5.5-4.6
					c-3.1-0.9-5.6-2.2-5.7-5.7c0-3.9,3.1-6.3,6.8-6.3c3.1,0,6.5,1.7,6.7,6.1H163.3z"/>
				<path class="st0" d="M173.1,29.3c0.1,5.5,4.8,8.1,8.5,8.1c3.4,0,6.1-1.7,7.5-4.5h3.1c-1,2.4-2.6,4.1-4.4,5.3
					c-1.8,1.2-4,1.8-6.2,1.8c-7.6,0-11.5-6.1-11.5-11.5c0-6.4,5-11.6,11.5-11.6c3.1,0,5.9,1.1,8,3.1c2.5,2.4,3.7,5.8,3.4,9.3H173.1z
					 M190.1,26.9c-0.2-3.8-3.9-7.5-8.4-7.4c-4.7,0-8.2,3.4-8.5,7.4H190.1z"/>
			</g>
		</g>
		<g>
			<g>
				<path class="st0" d="M77.1,49.9c0.1,0.7,0.6,0.8,0.8,0.8c0.4,0,0.8-0.3,0.8-0.8c0-0.6-0.5-0.7-1-0.9c-0.3-0.1-1-0.3-1-1.1
					c0-0.7,0.6-1.1,1.2-1.1c0.5,0,1.1,0.3,1.2,1.1h-0.5c0-0.3-0.2-0.7-0.7-0.7c-0.4,0-0.7,0.3-0.7,0.7c0,0.5,0.4,0.6,1,0.8
					c0.4,0.1,1,0.4,1,1.1c0,0.7-0.5,1.2-1.3,1.2c-0.7,0-1.3-0.4-1.3-1.2H77.1z"/>
				<path class="st0" d="M79.5,47H80l0.9,3.5l0.9-3.5h0.3l0.9,3.5L84,47h0.5l-1.1,4.1h-0.4L82,47.8l-0.9,3.3h-0.5L79.5,47z"/>
				<path class="st0" d="M84.9,47h0.5v4.1h-0.5V47z"/>
				<path class="st0" d="M86.8,47.4h-1V47h2.5v0.4h-1v3.7h-0.5V47.4z"/>
				<path class="st0" d="M89,50.7h2.1v0.4h-2.6v-0.3l2-3.4h-2.1V47H91v0.3L89,50.7z"/>
				<path class="st0" d="M91.5,47h2.3v0.4H92v1.4h1.8v0.4H92v1.5h1.8v0.4h-2.3V47z"/>
				<path class="st0" d="M94.5,47h1.1c0.6,0,0.9,0.1,1.2,0.2c0.3,0.2,0.6,0.6,0.6,1.1c0,0.3-0.1,0.6-0.2,0.8
					c-0.2,0.3-0.5,0.4-0.9,0.4l1,1.5h-0.5l-1.2-1.8h0.1c0.3,0,0.7,0,0.9-0.2c0.2-0.2,0.3-0.5,0.3-0.8c0-0.3-0.1-0.6-0.4-0.8
					c-0.2-0.1-0.5-0.1-0.8-0.1h-0.6v3.7h-0.5V47z"/>
				<path class="st0" d="M97.8,47h0.5v3.7h1.6v0.4h-2V47z"/>
				<path class="st0" d="M100.3,51.1h-0.5l1.7-4.1h0.4l1.7,4.1h-0.5l-0.5-1.2h-1.9L100.3,51.1z M101.8,47.5l-0.8,2.1h1.6L101.8,47.5
					z"/>
				<path class="st0" d="M107,50.4l0-3.4h0.4v4.1H107l-2.4-3.4l0,3.4h-0.4V47h0.5L107,50.4z"/>
				<path class="st0" d="M108.3,47h1.2c0.6,0,1.2,0.1,1.6,0.6c0.3,0.4,0.5,0.8,0.5,1.4c0,1.2-0.7,2.1-2.1,2.1h-1.2V47z M108.7,50.7
					h0.8c1.1,0,1.6-0.6,1.6-1.6c0-0.5-0.1-0.9-0.4-1.2c-0.3-0.3-0.6-0.5-1.2-0.5h-0.8V50.7z"/>
			</g>
		</g>
		<g>
			<path class="st0" d="M124,12c0.6,0.9,1.3,1.8,1.6,2.4c0.1,0.2,0.2,0.3,0.4,0.3c0,0,0,0,0.1,0c0.2,0,0.3-0.2,0.3-0.4
				c-0.2-0.7-1.3-2.1-1.9-2.9C124.3,11.6,124.2,11.8,124,12z"/>
			<path class="st0" d="M115.9,3.9l-1-2.8c-1.9-0.4-3.6-0.6-4.6-0.7C111.4,1,113.5,2.3,115.9,3.9z"/>
			<path class="st0" d="M109.7,0.9c0.2,0.5,0.5,1.4,0.9,2.4l2.6-0.3C111.5,1.9,110.3,1.2,109.7,0.9z"/>
			<path class="st0" d="M114.1,3.6L110.9,4c0.4,0.9,0.9,1.9,1.5,2.9c0,0,0,0,0.1,0l5.8-0.3C116.8,5.4,115.4,4.4,114.1,3.6z"/>
			<path class="st0" d="M122.8,10.6l-6.9,0.6c2.1,1.8,4.7,2.6,7.8,1c0.1-0.1,0.2-0.1,0.3-0.2C123.6,11.5,123.2,11.1,122.8,10.6z"/>
			<path class="st0" d="M119,7.2l-6.3,0.3c0.7,1.1,1.5,2.1,2.3,3l7-0.6C121.1,9,120.1,8,119,7.2z"/>
			<path class="st0" d="M124.5,11.4c0.1-0.1,0.1-0.2,0.1-0.4c1-4.1-1.4-6.7-4.5-8.2l1.6,5.6c0,0,0,0,0,0
				C122.7,9.5,123.7,10.5,124.5,11.4z"/>
			<path class="st0" d="M120.7,7.6l-1.5-5.1c0,0,0-0.1,0-0.1c-1.1-0.5-2.3-0.8-3.4-1.1l1.2,3.3l0,0c0.4,0.3,0.8,0.6,1.2,0.9
				C119.1,6.2,119.9,6.9,120.7,7.6z"/>
		</g>
	</g>
	<g>
		<path class="st0" d="M195.7,19.8v-2.5h-1v-0.4h2.4v0.4h-1v2.5H195.7z M197.5,19.8v-3h0.7l0.8,2.4l0.7-2.4h0.7v3H200v-2.5l-0.8,2.5
			h-0.4l-0.8-2.5v2.5H197.5z"/>
	</g>
</g>
</svg>
